<?xml version="1.0" encoding="UTF-8"?>
<svg width="108px" height="110px" viewBox="0 0 108 110" version="1.1" xmlns="http://www.w3.org/2000/svg" xmlns:xlink="http://www.w3.org/1999/xlink">
    <title>Icon</title>
    <defs>
        <filter x="-16.5%" y="-7.9%" width="132.9%" height="120.9%" filterUnits="objectBoundingBox" id="filter-1">
            <feOffset dx="0" dy="2" in="SourceAlpha" result="shadowOffsetOuter1"></feOffset>
            <feGaussianBlur stdDeviation="4" in="shadowOffsetOuter1" result="shadowBlurOuter1"></feGaussianBlur>
            <feColorMatrix values="0 0 0 0 0   0 0 0 0 0   0 0 0 0 0  0 0 0 0.1 0" type="matrix" in="shadowBlurOuter1" result="shadowMatrixOuter1"></feColorMatrix>
            <feMerge>
                <feMergeNode in="shadowMatrixOuter1"></feMergeNode>
                <feMergeNode in="SourceGraphic"></feMergeNode>
            </feMerge>
        </filter>
        <path d="M60.6521586,10.2317905 C42.6521586,-7.54863177 27.3200407,0.537677283 24.6521586,14.0838212 C21.9842765,27.6299652 -2.79876327,30.3346666 0.261187502,46.3346666 C3.32113827,62.3346666 36.6521586,52.8346666 36.6521586,67.3346666 C36.6521586,81.8346666 75.1895892,81.3346666 75.1895892,62.3346666 C75.1895892,43.3346666 78.6521586,28.0122127 60.6521586,10.2317905 Z" id="path-2"></path>
    </defs>
    <g id="General" stroke="none" stroke-width="1" fill="none" fill-rule="evenodd">
        <g id="First-screen" transform="translate(-583.000000, -2117.000000)">
            <g id="03_Features" transform="translate(193.000000, 1542.000000)">
                <g id="Features" transform="translate(49.000000, 0.000000)">
                    <g id="Feature-4">
                        <g filter="url(#filter-1)" transform="translate(274.792017, 525.748775)">
                            <g id="Icon" transform="translate(82.560924, 65.482843)">
                                <g id="bgicon">
                                    <mask id="mask-3" fill="white">
                                        <use xlink:href="#path-2"></use>
                                    </mask>
                                    <use fill-opacity="0.2" fill="#FFFFFF" xlink:href="#path-2"></use>
                                    <g id="Color/Blue" opacity="0.2" mask="url(#mask-3)" fill="#E66500">
                                        <rect id="Rectangle" x="0" y="0" width="76" height="78"></rect>
                                    </g>
                                </g>
                                <g id="icon/home/desktop" transform="translate(10.000000, 11.000000)">
                                    <g id="Group-11">
                                        <path d="M42,14 C42,21.732 35.732,28 28,28 C20.268,28 14,21.732 14,14 C14,6.268 20.268,0 28,0 C35.732,0 42,6.268 42,14 Z" id="Stroke-1" stroke="#333333" stroke-width="3" stroke-linecap="round" stroke-linejoin="round"></path>
                                        <g id="Group-4" transform="translate(28.501903, 13.996195) rotate(-90.000000) translate(-28.501903, -13.996195) translate(26.501903, 4.996195)" stroke="#E66500" stroke-linecap="round" stroke-linejoin="round" stroke-width="3">
                                            <line x1="1" y1="0.0852530918" x2="3" y2="3.08525309" id="Stroke-7" transform="translate(2.000000, 1.585253) rotate(5.000000) translate(-2.000000, -1.585253) "></line>
                                            <line x1="1" y1="14.0852531" x2="3" y2="17.0852531" id="Stroke-7" transform="translate(2.000000, 15.585253) rotate(5.000000) translate(-2.000000, -15.585253) "></line>
                                        </g>
                                        <path d="M21.4882,46 L28.0002,46 C30.2082,46 32.0002,44.208 32.0002,42 C32.0002,39.792 30.2082,38 28.0002,38 L18.0002,38 C18.0002,38 12.0002,34 8.0002,34 C4.0002,34 0.0002,38 0.0002,38 L0.0002,56 L32.0002,56 L56.0002,42 C56.0002,39.146 53.0962,37.21 50.4602,38.308 L32.0002,46 L16.0002,46" id="Stroke-9" stroke="#333333" stroke-width="3" stroke-linecap="round" stroke-linejoin="round"></path>
                                        <text id="N" font-family="Avenir-Heavy, Avenir" font-size="20" font-weight="600" fill="#E66500">
                                            <tspan x="20" y="20">N</tspan>
                                        </text>
                                    </g>
                                </g>
                            </g>
                        </g>
                    </g>
                </g>
            </g>
        </g>
    </g>
</svg>