<?xml version="1.0" encoding="UTF-8"?>
<svg width="107px" height="110px" viewBox="0 0 107 110" version="1.1" xmlns="http://www.w3.org/2000/svg" xmlns:xlink="http://www.w3.org/1999/xlink">
    <title>Icon</title>
    <defs>
        <filter x="-16.5%" y="-7.9%" width="132.9%" height="120.9%" filterUnits="objectBoundingBox" id="filter-1">
            <feOffset dx="0" dy="2" in="SourceAlpha" result="shadowOffsetOuter1"></feOffset>
            <feGaussianBlur stdDeviation="4" in="shadowOffsetOuter1" result="shadowBlurOuter1"></feGaussianBlur>
            <feColorMatrix values="0 0 0 0 0   0 0 0 0 0   0 0 0 0 0  0 0 0 0.1 0" type="matrix" in="shadowBlurOuter1" result="shadowMatrixOuter1"></feColorMatrix>
            <feMerge>
                <feMergeNode in="shadowMatrixOuter1"></feMergeNode>
                <feMergeNode in="SourceGraphic"></feMergeNode>
            </feMerge>
        </filter>
        <path d="M60.6521586,10.2317905 C42.6521586,-7.54863177 27.3200407,0.537677283 24.6521586,14.0838212 C21.9842765,27.6299652 -2.79876327,30.3346666 0.261187502,46.3346666 C3.32113827,62.3346666 36.6521586,52.8346666 36.6521586,67.3346666 C36.6521586,81.8346666 75.1895892,81.3346666 75.1895892,62.3346666 C75.1895892,43.3346666 78.6521586,28.0122127 60.6521586,10.2317905 Z" id="path-2"></path>
    </defs>
    <g id="General" stroke="none" stroke-width="1" fill="none" fill-rule="evenodd">
        <g id="First-screen" transform="translate(-309.000000, -2006.000000)">
            <g id="03_Features" transform="translate(193.000000, 1542.000000)">
                <g id="Features" transform="translate(49.000000, 0.000000)">
                    <g id="Feature-3">
                        <g filter="url(#filter-1)" transform="translate(0.000000, 414.596814)">
                            <g id="Icon" transform="translate(82.560924, 65.482843)">
                                <g id="bgicon">
                                    <mask id="mask-3" fill="white">
                                        <use xlink:href="#path-2"></use>
                                    </mask>
                                    <use fill-opacity="0.2" fill="#FFFFFF" xlink:href="#path-2"></use>
                                    <g id="Color/Blue" opacity="0.2" mask="url(#mask-3)" fill="#E66500">
                                        <rect id="Rectangle" x="0" y="0" width="76" height="78"></rect>
                                    </g>
                                </g>
                                <g id="icon/home/desktop" transform="translate(10.000000, 11.000000)" stroke-linecap="round" stroke-linejoin="round" stroke-width="3">
                                    <g id="Group-12">
                                        <polygon id="Stroke-1" stroke="#333333" points="0 56 44 56 44 0 0 0"></polygon>
                                        <path d="M56,28 L53,36 L50,28 L50,3 C50,1.344 51.344,0 53,0 C54.656,0 56,1.344 56,3 L56,28 Z" id="Stroke-3" stroke="#333333"></path>
                                        <line x1="50" y1="8.3868" x2="56" y2="8.3868" id="Stroke-4" stroke="#333333"></line>
                                        <path d="M10,50 L10,45 C10,40.03 14.03,36 19,36 C23.97,36 28,31.97 28,27 L28,20" id="Stroke-5" stroke="#E66500"></path>
                                        <polyline id="Stroke-6" stroke="#E66500" points="22 26 28 20 34 26"></polyline>
                                        <path d="M32,10 C32,12.208 30.208,14 28,14 C25.792,14 24,12.208 24,10 C24,7.792 25.792,6 28,6 C30.208,6 32,7.792 32,10 Z" id="Stroke-7" stroke="#E66500"></path>
                                        <line x1="24" y1="42" x2="32" y2="50" id="Stroke-8" stroke="#333333"></line>
                                        <line x1="32" y1="42" x2="24" y2="50" id="Stroke-9" stroke="#333333"></line>
                                        <line x1="8" y1="22" x2="16" y2="30" id="Stroke-10" stroke="#333333"></line>
                                        <line x1="16" y1="22" x2="8" y2="30" id="Stroke-11" stroke="#333333"></line>
                                    </g>
                                </g>
                            </g>
                        </g>
                    </g>
                </g>
            </g>
        </g>
    </g>
</svg>